<?xml version="1.0" encoding="UTF-8" standalone="no"?>
<!-- Created with Inkscape (http://www.inkscape.org/) -->

<svg
   xmlns:dc="http://purl.org/dc/elements/1.1/"
   xmlns:cc="http://creativecommons.org/ns#"
   xmlns:rdf="http://www.w3.org/1999/02/22-rdf-syntax-ns#"
   xmlns:svg="http://www.w3.org/2000/svg"
   xmlns="http://www.w3.org/2000/svg"
   xmlns:sodipodi="http://sodipodi.sourceforge.net/DTD/sodipodi-0.dtd"
   xmlns:inkscape="http://www.inkscape.org/namespaces/inkscape"
   width="480"
   height="480"
   viewBox="0 0 480 480"
   id="svg4816"
   version="1.1"
   inkscape:version="0.91pre3 r13670"
   sodipodi:docname="variant1_3d_box.svg">
  <defs
     id="defs4818" />
  <sodipodi:namedview
     id="base"
     pagecolor="#ffffff"
     bordercolor="#666666"
     borderopacity="1.0"
     inkscape:pageopacity="0.0"
     inkscape:pageshadow="2"
     inkscape:zoom="0.51"
     inkscape:cx="-595.92692"
     inkscape:cy="81.307077"
     inkscape:document-units="px"
     inkscape:current-layer="layer1"
     showgrid="false"
     borderlayer="true"
     units="px"
     showborder="true"
     width="480px"
     inkscape:window-width="1640"
     inkscape:window-height="810"
     inkscape:window-x="117"
     inkscape:window-y="113"
     inkscape:window-maximized="0" />
  <metadata
     id="metadata4821">
    <rdf:RDF>
      <cc:Work
         rdf:about="">
        <dc:format>image/svg+xml</dc:format>
        <dc:type
           rdf:resource="http://purl.org/dc/dcmitype/StillImage" />
        <dc:title />
      </cc:Work>
    </rdf:RDF>
  </metadata>
  <g
     inkscape:label="Ebene 1"
     inkscape:groupmode="layer"
     id="layer1"
     transform="translate(0,-572.3622)">
    <g
       style="font-style:normal;font-weight:normal;font-size:medium;line-height:125%;font-family:sans-serif;letter-spacing:0px;word-spacing:0px;fill:#1d365d;fill-opacity:1;stroke:#1d365d;stroke-width:54.1896553;stroke-linecap:butt;stroke-linejoin:miter;stroke-miterlimit:4;stroke-dasharray:none;stroke-opacity:1"
       transform="matrix(-1.1241939,0,0,1.2422941,-3704.7287,555.65656)"
       id="g4614-5-7-20-2-9-6-4-7-7-8-9-9">
      <g
         id="g5221-2-4-5-1-5-6-4"
         transform="matrix(0.9386402,0,0,0.9386402,-217.87346,1.3891745)"
         style="stroke-width:54.1896553">
        <path
           inkscape:connector-curvature="0"
           id="path4488-5-2-5-9-0-3-8-0-8-2-2-0-9-7"
           d="m -3511.2725,82.11759 c -1.4721,0 -2.9378,0.142088 -4.4083,0.1777 -24.008,0.581413 -33.1546,7.950827 -41.9589,18.5117 -5.9375,7.12206 -5.5528,19.1289 -5.5528,19.1289 l -24.0644,20.9786 31.4687,11.1074 c 0,0 1.8516,4.9355 1.8516,12.957 0,8.0215 -4.9377,45.6606 -5.5547,55.5332 36.9136,28.13502 73.7481,50.14532 128.9609,-47.5117 -5.5533,-16.66 -0.029,-47.49042 -23.4472,-68.4902 -20.0701,-17.997171 -33.2514,-22.4536 -57.2949,-22.3926 z"
           style="fill:#1d365d;fill-opacity:1;fill-rule:evenodd;stroke:#ffffff;stroke-width:4.49795103;stroke-linecap:butt;stroke-linejoin:miter;stroke-miterlimit:4;stroke-dasharray:none;stroke-opacity:0"
           sodipodi:nodetypes="csscccsccsc" />
        <path
           inkscape:connector-curvature="0"
           id="path4490-2-3-8-2-1-4-6-1-9-6-7-6-4-9"
           d="m -3571.3051,138.49883 22.5455,-19.93 c 0,0 9.0182,1.6609 12.5253,4.9826 3.5071,3.3216 6.5132,9.4112 6.5132,9.4112 0,0 -2.5051,2.2145 -3.5071,7.197 -1.002,4.9825 -1.5031,11.0722 -1.5031,11.0722 z"
           style="fill:#ffffff;fill-opacity:1;fill-rule:evenodd;stroke:#000000;stroke-width:2.02057981px;stroke-linecap:butt;stroke-linejoin:miter;stroke-opacity:0" />
        <path
           inkscape:connector-curvature="0"
           id="path4492-8-9-2-7-1-1-0-6-2-7-4-53-2-6"
           d="m -3441.5454,208.81444 c 3.8243,20.85333 4.1344,-10.13386 19.6352,8.01035 0,0 0,0 23.2526,-10.99671 -27.4417,-38.07911 1.6398,-15.99165 -10.0839,-24.63015 -11.7237,-8.6386 -20.3622,-11.1067 -23.4473,-12.3408 -3.0852,-1.234 -11.8197,26.52592 -9.3566,39.95731 z"
           style="fill:#1d365d;fill-opacity:1;fill-rule:evenodd;stroke:#ffffff;stroke-width:7.25440836;stroke-linecap:butt;stroke-linejoin:miter;stroke-miterlimit:4;stroke-dasharray:none;stroke-opacity:1"
           sodipodi:nodetypes="sccscs" />
        <path
           inkscape:connector-curvature="0"
           id="path4496-3-9-8-1-5-47-9-3-4-9-5-4-9-2"
           d="m -3512.493,108.48286 c 0,0 -12.9744,-3.96187 -12.3257,3.96188 0.6487,7.92386 1.2975,11.22535 8.4334,12.54601 7.1359,1.32067 15.5692,-0.66027 15.5692,-5.28253 0,-4.62216 -11.6769,-11.22536 -11.6769,-11.22536 z"
           style="fill:#ffffff;fill-opacity:1;fill-rule:evenodd;stroke:#000000;stroke-width:2.51104808px;stroke-linecap:butt;stroke-linejoin:miter;stroke-opacity:0" />
      </g>
    </g>
    <path
       sodipodi:nodetypes="ccccscccccccccccccccccscccccc"
       inkscape:connector-curvature="0"
       id="path5086-2-9-7-0-8-8-1-2"
       d="m 260.59733,868.20849 c -1.14709,-0.10905 -2.28066,-0.34445 -3.38637,-0.71597 l -0.0654,-0.0207 -0.0641,-0.025 c -3.89088,-1.42641 -7.12441,-4.35025 -9.13191,-8.06143 -2.00327,-3.70316 -2.6467,-8.05592 -1.58657,-12.07397 0.87054,-4.59962 3.98586,-8.58344 8.16171,-10.85089 l -0.33732,0.19903 156.69277,-101.33466 -156.69277,-101.33471 0.0815,0.0511 c -4.15011,-2.57516 -7.23292,-6.5239 -8.30402,-11.15773 -0.97736,-3.99525 -0.64383,-8.21956 1.14879,-11.83525 l 0.0882,-0.17709 0.10132,-0.17032 c 1.99357,-3.34944 4.95649,-6.01124 8.49905,-7.44019 l 0.32256,-0.12932 0.33691,-0.0853 c 4.20668,-1.06041 8.68354,-0.448 12.77834,1.45769 l 0.30735,0.14285 169.33221,108.13546 -0.025,-0.0172 c 8.89204,5.60331 14.42735,13.32245 14.42735,22.17976 0,8.37803 -5.21698,15.73919 -13.54917,21.34044 l -0.0336,0.0207 -168.56176,109.64169 -0.25121,0.12593 c -3.28335,1.65552 -6.84703,2.46061 -10.28871,2.13263 z"
       style="fill:#1d365d;fill-opacity:1;stroke:#ffffff;stroke-opacity:1;stroke-width:14;stroke-miterlimit:4;stroke-dasharray:none" />
    <path
       sodipodi:nodetypes="ccccsccccccccccccccccccscccccc"
       inkscape:connector-curvature="0"
       id="path5086-3-4-9-3-4-0-8-9-4"
       d="m 222.97957,868.28882 c 1.14751,-0.10947 2.28109,-0.34488 3.38637,-0.7164 l 0.0654,-0.0207 0.0646,-0.025 c 3.89045,-1.42641 7.12399,-4.35025 9.1319,-8.06142 2.00287,-3.70325 2.64671,-8.05601 1.58618,-12.07363 -0.87057,-4.59962 -3.98546,-8.58387 -8.16174,-10.85132 l 0.33775,0.19912 L 151.00618,786.048 72.696874,735.40481 229.39003,634.07006 l -0.0819,0.0511 c 4.1501,-2.57516 7.23291,-6.5239 8.30443,-11.15774 0.97694,-3.99524 0.64384,-8.21954 -1.14878,-11.83524 l -0.0887,-0.17708 -0.10091,-0.16991 c -1.99357,-3.34985 -4.95648,-6.01165 -8.49905,-7.44061 l -0.32255,-0.12933 -0.3369,-0.0853 c -4.20669,-1.06041 -8.68355,-0.44758 -12.77835,1.45768 l -0.30735,0.14286 -169.332585,108.13542 0.02577,-0.0173 c -8.892143,5.60384 -14.42782,13.32255 -14.42782,22.17985 0,8.37804 5.216959,15.73954 13.549666,21.34044 l 0.03379,0.0207 168.562099,109.64159 0.25079,0.12637 c 3.28377,1.65552 6.84704,2.4607 10.28911,2.13272 z"
       style="fill:#1d365d;fill-opacity:1;stroke:#ffffff;stroke-opacity:1;stroke-width:14;stroke-miterlimit:4;stroke-dasharray:none" />
    <path
       style="font-style:normal;font-weight:normal;font-size:medium;line-height:125%;font-family:sans-serif;letter-spacing:0px;word-spacing:0px;fill:#1d365d;fill-opacity:1;fill-rule:evenodd;stroke:none;stroke-width:61.20000076;stroke-linecap:round;stroke-linejoin:round;stroke-miterlimit:4;stroke-dasharray:none;stroke-opacity:1"
       d="m 444.35337,769.40547 c -0.92792,0.0849 -2.21555,0.74751 -2.21555,0.74751 L 259.30825,888.63179 c 0,0 -4.73816,3.45425 -6.17529,5.88573 -1.86608,3.15709 -1.62295,9.72087 -1.62295,9.72087 l 0.14647,115.63531 57.81512,0 123.06822,-97.97308 c 5.59572,-4.45429 7.61949,-5.30903 10.86572,-7.66525 3.57963,-2.59802 2.77955,-5.12013 2.77955,-7.86054 l 0,-135.70332 c 0,0 0.11929,-1.05343 -1.46132,-1.26436 -0.1131,-0.0151 -0.23783,-0.0138 -0.3704,-0.002 z"
       id="path5145-98-0-47-6-4-65-8"
       inkscape:connector-curvature="0" />
    <path
       style="font-style:normal;font-weight:normal;font-size:medium;line-height:125%;font-family:sans-serif;letter-spacing:0px;word-spacing:0px;fill:#1d365d;fill-opacity:1;fill-rule:evenodd;stroke:none;stroke-width:61.20000076;stroke-linecap:round;stroke-linejoin:round;stroke-miterlimit:4;stroke-dasharray:none;stroke-opacity:1"
       d="m 40.071765,770.10415 c -0.132556,-0.0122 -0.257293,-0.0117 -0.370386,0.004 -1.580703,0.21084 -1.461327,1.26267 -1.461327,1.26267 l 0,135.70332 c 0,2.74042 -0.800178,5.26262 2.779557,7.86054 3.246235,2.35623 5.270041,3.21229 10.865694,7.66693 l 122.189377,97.27269 58.69563,0 0.14646,-114.9366 c 0,0 0.24144,-6.56368 -1.62463,-9.72087 -1.43712,-2.43139 -6.17529,-5.88572 -6.1753,-5.88572 L 42.287327,770.85165 c 0,0 -1.287664,-0.66264 -2.215562,-0.7475 z"
       id="path5145-98-0-47-6-4-65-2-7"
       inkscape:connector-curvature="0" />
    <rect
       style="opacity:1;fill:#ffffff;fill-opacity:1;stroke:none;stroke-width:8.04699993;stroke-miterlimit:4;stroke-dasharray:none;stroke-opacity:1"
       id="rect5508-9-3"
       width="138.23529"
       height="120.58823"
       x="162.5"
       y="451.09747" />
    <path
       style="font-style:normal;font-weight:normal;font-size:medium;line-height:125%;font-family:sans-serif;letter-spacing:0px;word-spacing:0px;fill:#1d365d;fill-opacity:1;fill-rule:evenodd;stroke:none;stroke-width:61.20000076;stroke-linecap:round;stroke-linejoin:round;stroke-miterlimit:4;stroke-dasharray:none;stroke-opacity:1"
       d="m 38.629104,771.04236 c -0.132555,-0.0122 -0.257293,-0.0117 -0.370385,0.004 -1.580703,0.21085 -1.461327,1.26268 -1.461327,1.26268 l 0,171.54814 c 0,2.74042 -0.800179,5.26261 2.779557,7.86054 3.246234,2.35623 4.47549,4.4544 10.865695,7.66693 l 69.275606,60.57445 111.6094,0.8535 0.14647,-114.93668 c 0,0 0.24144,-6.56369 -1.62463,-9.72087 -1.43712,-2.4314 -6.17529,-5.88572 -6.1753,-5.88572 L 40.844667,771.78985 c 0,0 -1.287664,-0.66263 -2.215563,-0.74749 z"
       id="path5145-98-0-47-6-4-65-2-7-2"
       inkscape:connector-curvature="0"
       sodipodi:nodetypes="cccscscccsccc" />
    <path
       style="font-style:normal;font-weight:normal;font-size:medium;line-height:125%;font-family:sans-serif;letter-spacing:0px;word-spacing:0px;fill:#1d365d;fill-opacity:1;fill-rule:evenodd;stroke:none;stroke-width:61.20000076;stroke-linecap:round;stroke-linejoin:round;stroke-miterlimit:4;stroke-dasharray:none;stroke-opacity:1"
       d="m 445.92464,770.63154 c 0.13256,-0.0122 0.2573,-0.0117 0.37039,0.004 1.5807,0.21085 1.46132,1.26267 1.46132,1.26267 l 0,171.54814 c 0,2.74042 0.80018,5.26266 -2.77955,7.86059 -3.24623,2.35623 -4.47549,4.45438 -10.8657,7.66691 l -69.2756,60.57435 -111.6094,0.8536 -0.14647,-114.9367 c 0,0 -0.24144,-6.56369 1.62463,-9.72087 1.43711,-2.4314 6.1753,-5.88573 6.17531,-5.88573 L 443.70908,771.37904 c 0,0 1.28766,-0.66264 2.21556,-0.7475 z"
       id="path5145-98-0-47-6-4-65-2-7-7"
       inkscape:connector-curvature="0"
       sodipodi:nodetypes="cccscscccsccc" />
    <g
       style="font-style:normal;font-weight:normal;font-size:medium;line-height:125%;font-family:sans-serif;letter-spacing:0px;word-spacing:0px;fill:#1d365d;fill-opacity:1;stroke:#1d365d;stroke-width:46.71053696;stroke-linecap:butt;stroke-linejoin:miter;stroke-miterlimit:4;stroke-dasharray:none;stroke-opacity:1"
       transform="matrix(-1.3041958,0,0,1.4412057,-3719.4442,511.88343)"
       id="g4614-5-7-20-2-9-6-4-7-7-8-9-9-5">
      <g
         id="g5221-2-4-5-1-5-6-4-7"
         transform="matrix(0.9386402,0,0,0.9386402,-217.87346,1.3891745)"
         style="stroke-width:46.71053696">
        <path
           inkscape:connector-curvature="0"
           id="path4488-5-2-5-9-0-3-8-0-8-2-2-0-9-7-2"
           d="m -3511.2725,82.11759 c -1.4721,0 -2.9378,0.142088 -4.4083,0.1777 -24.008,0.581413 -33.1546,7.950827 -41.9589,18.5117 -5.9375,7.12206 -5.5528,19.1289 -5.5528,19.1289 l -24.0644,20.9786 31.4687,11.1074 c 0,0 1.8516,4.9355 1.8516,12.957 0,8.0215 -4.9377,45.6606 -5.5547,55.5332 36.9136,28.13502 73.7481,50.14532 128.9609,-47.5117 -5.5533,-16.66 -0.029,-47.49042 -23.4472,-68.4902 -20.0701,-17.997171 -33.2514,-22.4536 -57.2949,-22.3926 z"
           style="fill:#1d365d;fill-opacity:1;fill-rule:evenodd;stroke:#ffffff;stroke-width:3.8771553;stroke-linecap:butt;stroke-linejoin:miter;stroke-miterlimit:4;stroke-dasharray:none;stroke-opacity:0"
           sodipodi:nodetypes="csscccsccsc" />
        <path
           inkscape:connector-curvature="0"
           id="path4490-2-3-8-2-1-4-6-1-9-6-7-6-4-9-8"
           d="m -3571.3051,138.49883 22.5455,-19.93 c 0,0 9.0182,1.6609 12.5253,4.9826 3.5071,3.3216 6.5132,9.4112 6.5132,9.4112 0,0 -2.5051,2.2145 -3.5071,7.197 -1.002,4.9825 -1.5031,11.0722 -1.5031,11.0722 z"
           style="fill:#ffffff;fill-opacity:1;fill-rule:evenodd;stroke:#000000;stroke-width:1.74170434px;stroke-linecap:butt;stroke-linejoin:miter;stroke-opacity:0" />
        <path
           inkscape:connector-curvature="0"
           id="path4492-8-9-2-7-1-1-0-6-2-7-4-53-2-6-7"
           d="m -3441.5454,208.81444 c 3.8243,20.85333 4.1344,-10.13386 19.6352,8.01035 0,0 0,0 23.2526,-10.99671 -27.4417,-38.07911 1.6398,-15.99165 -10.0839,-24.63015 -11.7237,-8.6386 -20.3622,-11.1067 -23.4473,-12.3408 -3.0852,-1.234 -11.8197,26.52592 -9.3566,39.95731 z"
           style="fill:#1d365d;fill-opacity:1;fill-rule:evenodd;stroke:#ffffff;stroke-width:6.25317335;stroke-linecap:butt;stroke-linejoin:miter;stroke-miterlimit:4;stroke-dasharray:none;stroke-opacity:1"
           sodipodi:nodetypes="sccscs" />
        <path
           inkscape:connector-curvature="0"
           id="path4496-3-9-8-1-5-47-9-3-4-9-5-4-9-2-0"
           d="m -3512.493,108.48286 c 0,0 -12.9744,-3.96187 -12.3257,3.96188 0.6487,7.92386 1.2975,11.22535 8.4334,12.54601 7.1359,1.32067 15.5692,-0.66027 15.5692,-5.28253 0,-4.62216 -11.6769,-11.22536 -11.6769,-11.22536 z"
           style="fill:#ffffff;fill-opacity:1;fill-rule:evenodd;stroke:#000000;stroke-width:2.16447949px;stroke-linecap:butt;stroke-linejoin:miter;stroke-opacity:0" />
      </g>
    </g>
    <path
       sodipodi:nodetypes="ccccscccccccccccccccccscccccc"
       inkscape:connector-curvature="0"
       id="path5086-2-9-7-0-8-8-1-2-7"
       d="m 880.79532,874.48003 c -1.33075,-0.1265 -2.64583,-0.3996 -3.92858,-0.8306 l -0.0759,-0.024 -0.0744,-0.029 c -4.51387,-1.6548 -8.26514,-5.0468 -10.59407,-9.3522 -2.32404,-4.2961 -3.07048,-9.3458 -1.84062,-14.0072 1.00993,-5.3361 4.62407,-9.9578 9.46855,-12.5883 l -0.39134,0.2309 181.78184,-117.56 -181.78184,-117.56005 0.0945,0.0593 c -4.8146,-2.98748 -8.39103,-7.56848 -9.63362,-12.94427 -1.13385,-4.63494 -0.74692,-9.53563 1.33272,-13.73026 l 0.10236,-0.20544 0.11755,-0.1976 c 2.31277,-3.88573 5.7501,-6.97373 9.85989,-8.63148 l 0.3742,-0.15003 0.39085,-0.099 c 4.88024,-1.2302 10.07393,-0.51974 14.82437,1.69109 l 0.35656,0.16572 196.44506,125.44972 -0.029,-0.02 c 10.3158,6.5005 16.7374,15.4556 16.7374,25.7311 0,9.7195 -6.0523,18.2593 -15.7186,24.7574 l -0.039,0.024 -195.55124,127.1971 -0.29143,0.1461 c -3.80906,1.9206 -7.94336,2.8546 -11.9361,2.4741 z"
       style="color:#000000;font-style:normal;font-variant:normal;font-weight:normal;font-stretch:normal;font-size:859.96350098px;line-height:125%;font-family:Gulim;-inkscape-font-specification:Gulim;text-indent:0;text-align:start;text-decoration:none;text-decoration-line:none;text-decoration-style:solid;text-decoration-color:#000000;letter-spacing:0px;word-spacing:0px;text-transform:none;direction:ltr;block-progression:tb;writing-mode:lr-tb;baseline-shift:baseline;text-anchor:start;white-space:normal;clip-rule:nonzero;display:inline;overflow:visible;visibility:visible;opacity:1;isolation:auto;mix-blend-mode:normal;color-interpolation:sRGB;color-interpolation-filters:linearRGB;solid-color:#000000;solid-opacity:1;fill:#1d365d;fill-opacity:1;fill-rule:nonzero;stroke:#ffffff;stroke-width:14.08300018;stroke-linecap:butt;stroke-linejoin:miter;stroke-miterlimit:4;stroke-dasharray:none;stroke-dashoffset:0;stroke-opacity:1;color-rendering:auto;image-rendering:auto;shape-rendering:auto;text-rendering:auto;enable-background:accumulate" />
    <path
       sodipodi:nodetypes="ccccsccccccccccccccccccscccccc"
       inkscape:connector-curvature="0"
       id="path5086-3-4-9-3-4-0-8-9-4-4"
       d="m 837.15435,874.57323 c 1.33124,-0.127 2.64633,-0.4001 3.92859,-0.8311 l 0.0759,-0.024 0.0749,-0.029 c 4.51338,-1.6548 8.26466,-5.0468 10.59408,-9.3522 2.32356,-4.2962 3.07048,-9.3459 1.84014,-14.0068 -1.00995,-5.3361 -4.6236,-9.9583 -9.46856,-12.5888 l 0.39182,0.231 -90.93438,-58.808 -90.84791,-58.752 181.78229,-117.56009 -0.095,0.0593 c 4.8146,-2.98748 8.39102,-7.56848 9.6341,-12.94428 1.13337,-4.63493 0.74693,-9.53562 -1.33271,-13.73025 l -0.10285,-0.20544 -0.11707,-0.19711 c -2.31277,-3.88622 -5.75009,-6.97422 -9.85989,-8.63197 l -0.37419,-0.15004 -0.39085,-0.099 c -4.88024,-1.23019 -10.07393,-0.51924 -14.82437,1.69109 l -0.35656,0.16573 -196.4455,125.44966 0.0299,-0.02 c -10.31592,6.5011 -16.73795,15.4557 -16.73795,25.7312 0,9.7195 6.05228,18.2597 15.71919,24.7574 l 0.0392,0.024 195.55165,127.197 0.29094,0.1466 c 3.80955,1.9206 7.94336,2.8547 11.93657,2.4742 z"
       style="color:#000000;font-style:normal;font-variant:normal;font-weight:normal;font-stretch:normal;font-size:859.96350098px;line-height:125%;font-family:Gulim;-inkscape-font-specification:Gulim;text-indent:0;text-align:start;text-decoration:none;text-decoration-line:none;text-decoration-style:solid;text-decoration-color:#000000;letter-spacing:0px;word-spacing:0px;text-transform:none;direction:ltr;block-progression:tb;writing-mode:lr-tb;baseline-shift:baseline;text-anchor:start;white-space:normal;clip-rule:nonzero;display:inline;overflow:visible;visibility:visible;opacity:1;isolation:auto;mix-blend-mode:normal;color-interpolation:sRGB;color-interpolation-filters:linearRGB;solid-color:#000000;solid-opacity:1;fill:#1d365d;fill-opacity:1;fill-rule:nonzero;stroke:#ffffff;stroke-width:14.08300018;stroke-linecap:butt;stroke-linejoin:miter;stroke-miterlimit:4;stroke-dasharray:none;stroke-dashoffset:0;stroke-opacity:1;color-rendering:auto;image-rendering:auto;shape-rendering:auto;text-rendering:auto;enable-background:accumulate" />
    <path
       style="font-style:normal;font-weight:normal;font-size:medium;line-height:125%;font-family:sans-serif;letter-spacing:0px;word-spacing:0px;fill:#1d365d;fill-opacity:1;fill-rule:evenodd;stroke:none;stroke-width:61.20000076;stroke-linecap:round;stroke-linejoin:round;stroke-miterlimit:4;stroke-dasharray:none;stroke-opacity:1"
       d="m 1093.9737,759.85704 c -1.0765,0.0985 -2.5703,0.86719 -2.5703,0.86719 l -212.10355,137.4492 c 0,0 -5.49683,4.0073 -7.16406,6.8281 -2.16487,3.6626 -1.88281,11.2774 -1.88281,11.2774 l 0.16992,134.15037 67.07226,0 142.77344,-113.66017 c 6.4917,-5.1675 8.8395,-6.1591 12.6055,-8.8926 4.1528,-3.014 3.2246,-5.9399 3.2246,-9.1191 l 0,-157.43164 c 0,0 0.1384,-1.2221 -1.6953,-1.4668 -0.1312,-0.0175 -0.2759,-0.016 -0.4297,-0.002 z"
       id="path5145-98-0-47-6-4-65-8-4"
       inkscape:connector-curvature="0" />
    <path
       style="font-style:normal;font-weight:normal;font-size:medium;line-height:125%;font-family:sans-serif;letter-spacing:0px;word-spacing:0px;fill:#1d365d;fill-opacity:1;fill-rule:evenodd;stroke:none;stroke-width:61.20000076;stroke-linecap:round;stroke-linejoin:round;stroke-miterlimit:4;stroke-dasharray:none;stroke-opacity:1"
       d="m 624.96001,760.66759 c -0.15378,-0.0141 -0.29849,-0.0136 -0.42969,0.004 -1.8338,0.2446 -1.69531,1.46484 -1.69531,1.46484 l 0,157.4316 c 0,3.1792 -0.9283,6.1053 3.22461,9.1192 3.76601,2.7335 6.11386,3.7266 12.60547,8.8945 l 141.7539,112.84767 68.09375,0 0.16992,-133.33987 c 0,0 0.2801,-7.6146 -1.88476,-11.2773 -1.66722,-2.8207 -7.16406,-6.8281 -7.16407,-6.8281 L 627.53032,761.53477 c 0,0 -1.49384,-0.76873 -2.57031,-0.86718 z"
       id="path5145-98-0-47-6-4-65-2-7-1"
       inkscape:connector-curvature="0" />
    <rect
       style="opacity:1;fill:none;fill-opacity:1;stroke:#1d365d;stroke-width:21.69999886;stroke-miterlimit:4;stroke-dasharray:none;stroke-opacity:1"
       id="rect4233"
       width="525.65094"
       height="525.65094"
       x="599.72552"
       y="550.2406"
       ry="59.995899" />
    <rect
       style="opacity:1;fill:none;fill-opacity:1;stroke:#1d365d;stroke-width:21.69999886;stroke-miterlimit:4;stroke-dasharray:none;stroke-opacity:1"
       id="rect4233-9"
       width="453.1019"
       height="453.1019"
       x="13.684344"
       y="587.53674"
       ry="51.715416" />
    <g
       style="font-style:normal;font-weight:normal;font-size:medium;line-height:125%;font-family:sans-serif;letter-spacing:0px;word-spacing:0px;fill:#1d365d;fill-opacity:1;stroke:#1d365d;stroke-width:46.71053696;stroke-linecap:butt;stroke-linejoin:miter;stroke-miterlimit:4;stroke-dasharray:none;stroke-opacity:1"
       transform="matrix(-1.3041958,0,0,1.4412057,-4945.2446,511.37552)"
       id="g4614-5-7-20-2-9-6-4-7-7-8-9-9-6">
      <g
         id="g5221-2-4-5-1-5-6-4-1"
         transform="matrix(0.9386402,0,0,0.9386402,-217.87346,1.3891745)"
         style="stroke-width:46.71053696">
        <path
           inkscape:connector-curvature="0"
           id="path4488-5-2-5-9-0-3-8-0-8-2-2-0-9-7-4"
           d="m -3511.2725,82.11759 c -1.4721,0 -2.9378,0.142088 -4.4083,0.1777 -24.008,0.581413 -33.1546,7.950827 -41.9589,18.5117 -5.9375,7.12206 -5.5528,19.1289 -5.5528,19.1289 l -24.0644,20.9786 31.4687,11.1074 c 0,0 1.8516,4.9355 1.8516,12.957 0,8.0215 -4.9377,45.6606 -5.5547,55.5332 36.9136,28.13502 73.7481,50.14532 128.9609,-47.5117 -5.5533,-16.66 -0.029,-47.49042 -23.4472,-68.4902 -20.0701,-17.997171 -33.2514,-22.4536 -57.2949,-22.3926 z"
           style="fill:#1d365d;fill-opacity:1;fill-rule:evenodd;stroke:#ffffff;stroke-width:3.8771553;stroke-linecap:butt;stroke-linejoin:miter;stroke-miterlimit:4;stroke-dasharray:none;stroke-opacity:0"
           sodipodi:nodetypes="csscccsccsc" />
        <path
           inkscape:connector-curvature="0"
           id="path4490-2-3-8-2-1-4-6-1-9-6-7-6-4-9-4"
           d="m -3571.3051,138.49883 22.5455,-19.93 c 0,0 9.0182,1.6609 12.5253,4.9826 3.5071,3.3216 6.5132,9.4112 6.5132,9.4112 0,0 -2.5051,2.2145 -3.5071,7.197 -1.002,4.9825 -1.5031,11.0722 -1.5031,11.0722 z"
           style="fill:#ffffff;fill-opacity:1;fill-rule:evenodd;stroke:#000000;stroke-width:1.74170434px;stroke-linecap:butt;stroke-linejoin:miter;stroke-opacity:0" />
        <path
           inkscape:connector-curvature="0"
           id="path4492-8-9-2-7-1-1-0-6-2-7-4-53-2-6-5"
           d="m -3441.5454,208.81444 c 3.8243,20.85333 4.1344,-10.13386 19.6352,8.01035 0,0 0,0 23.2526,-10.99671 -27.4417,-38.07911 1.6398,-15.99165 -10.0839,-24.63015 -11.7237,-8.6386 -20.3622,-11.1067 -23.4473,-12.3408 -3.0852,-1.234 -11.8197,26.52592 -9.3566,39.95731 z"
           style="fill:#1d365d;fill-opacity:1;fill-rule:evenodd;stroke:#ffffff;stroke-width:6.25317335;stroke-linecap:butt;stroke-linejoin:miter;stroke-miterlimit:4;stroke-dasharray:none;stroke-opacity:1"
           sodipodi:nodetypes="sccscs" />
        <path
           inkscape:connector-curvature="0"
           id="path4496-3-9-8-1-5-47-9-3-4-9-5-4-9-2-7"
           d="m -3512.493,108.48286 c 0,0 -12.9744,-3.96187 -12.3257,3.96188 0.6487,7.92386 1.2975,11.22535 8.4334,12.54601 7.1359,1.32067 15.5692,-0.66027 15.5692,-5.28253 0,-4.62216 -11.6769,-11.22536 -11.6769,-11.22536 z"
           style="fill:#ffffff;fill-opacity:1;fill-rule:evenodd;stroke:#000000;stroke-width:2.16447949px;stroke-linecap:butt;stroke-linejoin:miter;stroke-opacity:0" />
      </g>
    </g>
    <path
       sodipodi:nodetypes="ccccscccccccccccccccccscccccc"
       inkscape:connector-curvature="0"
       id="path5086-2-9-7-0-8-8-1-2-6"
       d="m -345.00514,873.97209 c -1.33075,-0.1265 -2.64583,-0.3996 -3.92858,-0.8306 l -0.0759,-0.024 -0.0744,-0.029 c -4.51387,-1.6548 -8.26514,-5.0468 -10.59407,-9.3522 -2.32404,-4.2961 -3.07048,-9.3458 -1.84062,-14.0072 1.00993,-5.3361 4.62407,-9.9578 9.46855,-12.5883 l -0.39134,0.2309 181.78185,-117.56 -181.78185,-117.56 0.0945,0.059 c -4.8146,-2.9875 -8.39103,-7.5685 -9.63362,-12.9443 -1.13385,-4.63492 -0.74692,-9.53561 1.33272,-13.73024 l 0.10236,-0.20545 0.11755,-0.19759 c 2.31277,-3.88573 5.7501,-6.97373 9.85989,-8.63148 l 0.3742,-0.15004 0.39085,-0.099 c 4.88024,-1.23021 10.07393,-0.51975 14.82437,1.69108 l 0.35656,0.16573 196.44507,125.44969 -0.029,-0.02 c 10.3158,6.5005 16.7374,15.4556 16.7374,25.7311 0,9.7195 -6.0523,18.2593 -15.7186,24.7574 l -0.039,0.024 -195.55125,127.1971 -0.29143,0.1461 c -3.80906,1.9206 -7.94336,2.8546 -11.9361,2.4741 z"
       style="fill:#1d365d;fill-opacity:1;stroke:#ffffff;stroke-opacity:1;stroke-width:16.42;stroke-miterlimit:4;stroke-dasharray:none" />
    <path
       sodipodi:nodetypes="ccccsccccccccccccccccccscccccc"
       inkscape:connector-curvature="0"
       id="path5086-3-4-9-3-4-0-8-9-4-7"
       d="m -388.64611,874.06529 c 1.33124,-0.127 2.64633,-0.4001 3.92859,-0.8311 l 0.0759,-0.024 0.0749,-0.029 c 4.51338,-1.6548 8.26466,-5.0468 10.59408,-9.3522 2.32356,-4.2962 3.07048,-9.3459 1.84014,-14.0068 -1.00995,-5.3361 -4.6236,-9.9583 -9.46856,-12.5888 l 0.39182,0.231 -90.93438,-58.808 -90.84791,-58.752 181.78229,-117.5601 -0.095,0.059 c 4.8146,-2.9874 8.39102,-7.5684 9.6341,-12.9442 1.13337,-4.63497 0.74693,-9.53565 -1.33271,-13.73028 l -0.10285,-0.20544 -0.11707,-0.19711 c -2.31277,-3.88623 -5.75009,-6.97423 -9.85989,-8.63197 l -0.37419,-0.15004 -0.39085,-0.099 c -4.88024,-1.23019 -10.07393,-0.51923 -14.82437,1.6911 l -0.35656,0.16572 -196.4455,125.44962 0.0299,-0.02 c -10.31592,6.5011 -16.73795,15.4557 -16.73795,25.7312 0,9.7195 6.05228,18.2597 15.71919,24.7574 l 0.0392,0.024 195.55165,127.197 0.29094,0.1466 c 3.80955,1.9206 7.94336,2.8547 11.93657,2.4742 z"
       style="fill:#1d365d;fill-opacity:1;stroke:#ffffff;stroke-opacity:1;stroke-width:16.42;stroke-miterlimit:4;stroke-dasharray:none" />
    <path
       style="font-style:normal;font-weight:normal;font-size:medium;line-height:125%;font-family:sans-serif;letter-spacing:0px;word-spacing:0px;fill:#1d365d;fill-opacity:1;fill-rule:evenodd;stroke:none;stroke-width:61.20000076;stroke-linecap:round;stroke-linejoin:round;stroke-miterlimit:4;stroke-dasharray:none;stroke-opacity:1"
       d="m -131.82675,759.34909 c -1.0765,0.098 -2.5703,0.8672 -2.5703,0.8672 l -212.10356,137.4492 c 0,0 -5.49683,4.0074 -7.16406,6.8282 -2.16487,3.6626 -1.88281,11.2773 -1.88281,11.2773 l 0.16992,134.15041 67.07226,0 142.77345,-113.66021 c 6.4917,-5.1675 8.8395,-6.159 12.6055,-8.8925 4.1528,-3.014 3.2246,-5.94 3.2246,-9.1192 l 0,-157.4316 c 0,0 0.1384,-1.2221 -1.6953,-1.4668 -0.1312,-0.017 -0.2759,-0.016 -0.4297,0 z"
       id="path5145-98-0-47-6-4-65-8-2"
       inkscape:connector-curvature="0" />
    <path
       style="font-style:normal;font-weight:normal;font-size:medium;line-height:125%;font-family:sans-serif;letter-spacing:0px;word-spacing:0px;fill:#1d365d;fill-opacity:1;fill-rule:evenodd;stroke:none;stroke-width:61.20000076;stroke-linecap:round;stroke-linejoin:round;stroke-miterlimit:4;stroke-dasharray:none;stroke-opacity:1"
       d="m -600.84045,760.15969 c -0.15378,-0.014 -0.29849,-0.014 -0.42969,0 -1.8338,0.2446 -1.69531,1.4648 -1.69531,1.4648 l 0,157.4317 c 0,3.1792 -0.9283,6.1052 3.22461,9.1191 3.76601,2.7335 6.11386,3.7266 12.60547,8.8945 l 141.7539,112.84771 68.09375,0 0.16992,-133.33981 c 0,0 0.2801,-7.6147 -1.88476,-11.2774 -1.66722,-2.8207 -7.16406,-6.8281 -7.16407,-6.8281 l -212.10351,-137.4453 c 0,0 -1.49384,-0.7688 -2.57031,-0.8672 z"
       id="path5145-98-0-47-6-4-65-2-7-4"
       inkscape:connector-curvature="0" />
    <path
       style="font-style:normal;font-weight:normal;font-size:medium;line-height:125%;font-family:sans-serif;letter-spacing:0px;word-spacing:0px;fill:#1d365d;fill-opacity:1;fill-rule:evenodd;stroke:none;stroke-width:61.20000076;stroke-linecap:round;stroke-linejoin:round;stroke-miterlimit:4;stroke-dasharray:none;stroke-opacity:1"
       d="m -602.5141,761.24809 c -0.15378,-0.014 -0.29849,-0.014 -0.42969,0 -1.8338,0.2446 -1.69531,1.4649 -1.69531,1.4649 l 0,199.0158 c 0,3.1792 -0.9283,6.1052 3.22461,9.1191 3.76601,2.7335 5.19209,5.1676 12.60547,8.8945 l 80.36776,70.27341 129.47989,0.9901 0.16992,-133.33981 c 0,0 0.2801,-7.6147 -1.88476,-11.2774 -1.66722,-2.8207 -7.16406,-6.8281 -7.16407,-6.8281 l -212.10351,-137.4453 c 0,0 -1.49384,-0.7687 -2.57031,-0.8672 z"
       id="path5145-98-0-47-6-4-65-2-7-2-9"
       inkscape:connector-curvature="0"
       sodipodi:nodetypes="cccscscccsccc" />
    <path
       style="font-style:normal;font-weight:normal;font-size:medium;line-height:125%;font-family:sans-serif;letter-spacing:0px;word-spacing:0px;fill:#1d365d;fill-opacity:1;fill-rule:evenodd;stroke:none;stroke-width:61.20000076;stroke-linecap:round;stroke-linejoin:round;stroke-miterlimit:4;stroke-dasharray:none;stroke-opacity:1"
       d="m -130.00389,760.77149 c 0.15378,-0.014 0.29849,-0.014 0.42969,0 1.8338,0.2446 1.69531,1.4649 1.69531,1.4649 l 0,199.0158 c 0,3.1792 0.9283,6.1052 -3.22461,9.1191 -3.76601,2.7335 -5.19209,5.1676 -12.60547,8.8945 l -80.36776,70.27341 -129.47989,0.9901 -0.16992,-133.33981 c 0,0 -0.2801,-7.6147 1.88476,-11.2774 1.66722,-2.8207 7.16406,-6.8281 7.16407,-6.8281 l 212.10351,-137.4493 c 0,0 1.49384,-0.7687 2.57031,-0.8672 z"
       id="path5145-98-0-47-6-4-65-2-7-7-3"
       inkscape:connector-curvature="0"
       sodipodi:nodetypes="cccscscccsccc" />
  </g>
</svg>
