<?xml version="1.0" encoding="UTF-8" standalone="no"?>
<!-- Created with Inkscape (http://www.inkscape.org/) -->

<svg
   xmlns:dc="http://purl.org/dc/elements/1.1/"
   xmlns:cc="http://creativecommons.org/ns#"
   xmlns:rdf="http://www.w3.org/1999/02/22-rdf-syntax-ns#"
   xmlns:svg="http://www.w3.org/2000/svg"
   xmlns="http://www.w3.org/2000/svg"
   xmlns:sodipodi="http://sodipodi.sourceforge.net/DTD/sodipodi-0.dtd"
   xmlns:inkscape="http://www.inkscape.org/namespaces/inkscape"
   width="480"
   height="480"
   viewBox="0 0 480 480"
   id="svg4816"
   version="1.1"
   inkscape:version="0.91pre3 r13670"
   sodipodi:docname="variant3_iso_box.svg">
  <defs
     id="defs4818" />
  <sodipodi:namedview
     id="base"
     pagecolor="#ffffff"
     bordercolor="#666666"
     borderopacity="1.0"
     inkscape:pageopacity="0.0"
     inkscape:pageshadow="2"
     inkscape:zoom="2.7310937"
     inkscape:cx="161.7736"
     inkscape:cy="254.0703"
     inkscape:document-units="px"
     inkscape:current-layer="layer1"
     showgrid="false"
     borderlayer="true"
     units="px"
     showborder="true"
     width="480px"
     inkscape:window-width="1920"
     inkscape:window-height="1057"
     inkscape:window-x="-8"
     inkscape:window-y="-8"
     inkscape:window-maximized="1" />
  <metadata
     id="metadata4821">
    <rdf:RDF>
      <cc:Work
         rdf:about="">
        <dc:format>image/svg+xml</dc:format>
        <dc:type
           rdf:resource="http://purl.org/dc/dcmitype/StillImage" />
        <dc:title />
      </cc:Work>
    </rdf:RDF>
  </metadata>
  <g
     inkscape:label="Ebene 1"
     inkscape:groupmode="layer"
     id="layer1"
     transform="translate(0,-572.3622)">
    <rect
       style="opacity:1;fill:none;fill-opacity:1;stroke:#1d365d;stroke-width:21.69999886;stroke-miterlimit:4;stroke-dasharray:none;stroke-opacity:1"
       id="rect4233-9"
       width="453.1019"
       height="453.1019"
       x="13.87458"
       y="585.38568"
       ry="51.715416" />
    <rect
       style="opacity:1;fill:none;fill-opacity:1;stroke:#ffffff;stroke-width:12.47299957;stroke-miterlimit:4;stroke-dasharray:none;stroke-opacity:1"
       id="rect5904"
       width="30.851065"
       height="56.38298"
       x="228.7234"
       y="576.83026"
       ry="0" />
    <path
       inkscape:connector-curvature="0"
       id="path4488-5-2-5-9-0-3-8-0-8-6"
       d="m 255.2141,653.63497 c 1.58839,0 3.1697,0.16929 4.75619,0.21184 25.90279,0.69277 35.77125,9.46937 45.27041,22.04742 6.40606,8.482 5.99088,22.78178 5.99088,22.78178 l 25.96378,24.98493 -33.95257,13.2292 c 0,0 -1.99743,5.87786 -1.99743,15.4314 0,9.55306 5.32743,54.38046 5.99277,66.13898 -31.73194,49.14139 -102.9491,63.75802 -139.13792,-56.58592 5.99136,-19.84145 0.0331,-56.55987 25.29752,-81.57032 21.65398,-21.43409 35.87576,-26.74166 61.81637,-26.66931 z"
       style="font-style:normal;font-weight:normal;font-size:medium;line-height:125%;font-family:sans-serif;letter-spacing:0px;word-spacing:0px;fill:#1d365d;fill-opacity:1;fill-rule:evenodd;stroke:#ffffff;stroke-width:4.55461884;stroke-linecap:butt;stroke-linejoin:miter;stroke-miterlimit:4;stroke-dasharray:none;stroke-opacity:0"
       sodipodi:nodetypes="csscccsccsc" />
    <path
       inkscape:connector-curvature="0"
       id="path4490-2-3-8-2-1-4-6-1-9-2"
       d="m 319.98453,720.78443 -24.32479,-23.73654 c 0,0 -9.72992,1.97804 -13.51388,5.93461 -3.78396,3.95561 -7.02742,11.20765 -7.02742,11.20765 0,0 2.70296,2.63771 3.78395,8.57232 1.081,5.93366 1.62198,13.18665 1.62198,13.18665 z"
       style="font-style:normal;font-weight:normal;font-size:medium;line-height:125%;font-family:sans-serif;letter-spacing:0px;word-spacing:0px;fill:#ffffff;fill-opacity:1;fill-rule:evenodd;stroke:#000000;stroke-width:2.04603601px;stroke-linecap:butt;stroke-linejoin:miter;stroke-miterlimit:4;stroke-dasharray:none;stroke-opacity:0" />
    <path
       inkscape:connector-curvature="0"
       id="path4492-8-9-2-7-1-1-0-6-2-3"
       d="m 183.98456,786.52862 c -4.12633,24.836 1.42667,-2.3431 -15.29757,19.26645 -17.269,22.3136 -14.4322,-11.87634 -14.4322,-11.87634 0,0 -18.24123,9.77339 -12.9157,-8.59878 5.32602,-18.37174 -5.39646,-21.39343 7.25252,-31.68182 12.64898,-10.28842 21.96939,-13.22783 25.2975,-14.69753 3.32905,-1.4697 12.75256,31.59153 10.09545,47.58802 z"
       style="font-style:normal;font-weight:normal;font-size:medium;line-height:125%;font-family:sans-serif;letter-spacing:0px;word-spacing:0px;fill:#1d365d;fill-opacity:1;fill-rule:evenodd;stroke:#ffffff;stroke-width:12.47299957;stroke-linecap:butt;stroke-linejoin:miter;stroke-miterlimit:4;stroke-dasharray:none;stroke-opacity:1"
       sodipodi:nodetypes="sscsscs" />
    <path
       inkscape:connector-curvature="0"
       id="path4496-3-9-8-1-5-47-9-3-4-90"
       d="m 256.53106,685.03589 c 0,0 13.9981,-4.71837 13.29825,4.71837 -0.69986,9.43671 -1.39972,13.36963 -9.09863,14.94242 -7.69938,1.57278 -16.79801,-0.7864 -16.79801,-6.2921 0,-5.50476 12.59839,-13.36869 12.59839,-13.36869 z"
       style="font-style:normal;font-weight:normal;font-size:medium;line-height:125%;font-family:sans-serif;letter-spacing:0px;word-spacing:0px;fill:#ffffff;fill-opacity:1;fill-rule:evenodd;stroke:#000000;stroke-width:2.54268336px;stroke-linecap:butt;stroke-linejoin:miter;stroke-miterlimit:4;stroke-dasharray:none;stroke-opacity:0" />
    <path
       inkscape:connector-curvature="0"
       id="path5145-98-0-2"
       d="m 429.14362,773.62415 0,217.5335 c 0,3.30399 0.3735,5.96434 -2.66186,9.47835 -2.31755,2.6826 -6.74984,2.598 -10.40515,2.598 l -164.93905,0 -0.20901,-81.84103 z"
       style="font-style:normal;font-weight:normal;font-size:medium;line-height:125%;font-family:sans-serif;letter-spacing:0px;word-spacing:0px;fill:#1d365d;fill-opacity:1;fill-rule:evenodd;stroke:none;stroke-width:1px;stroke-linecap:butt;stroke-linejoin:miter;stroke-miterlimit:4;stroke-dasharray:none;stroke-opacity:1"
       sodipodi:nodetypes="csssccc" />
    <path
       inkscape:connector-curvature="0"
       id="path5145-98-0-4-6"
       d="m 50.520269,771.849 0,219.30865 c 0,3.30399 -0.373568,5.96434 2.661833,9.47835 2.317566,2.6826 6.74984,2.598 10.405185,2.598 l 164.939023,0 0.20854,-83.61618 z"
       style="font-style:normal;font-weight:normal;font-size:medium;line-height:125%;font-family:sans-serif;letter-spacing:0px;word-spacing:0px;fill:#1d365d;fill-opacity:1;fill-rule:evenodd;stroke:none;stroke-width:1px;stroke-linecap:butt;stroke-linejoin:miter;stroke-miterlimit:4;stroke-dasharray:none;stroke-opacity:1"
       sodipodi:nodetypes="csssccc" />
    <path
       sodipodi:nodetypes="ccccscccccccccccccccccscccccc"
       inkscape:connector-curvature="0"
       id="path5086-3-4-9-3-46"
       d="m 224.43501,887.20549 c 1.09802,-0.13193 2.18374,-0.41617 3.24252,-0.86348 l 0.0629,-0.0284 0.0615,-0.0284 c 3.72532,-1.72031 6.82173,-5.24609 8.74397,-9.72141 1.91846,-4.4653 2.53462,-9.71476 1.51936,-14.5594 -0.83321,-5.54631 -3.81612,-10.35121 -7.81524,-13.08538 l 0.32297,0.23972 L 80.530035,726.96162 230.57297,604.76408 l -0.078,0.0615 c 3.97406,-3.10538 6.92622,-7.86631 7.95143,-13.45477 0.9363,-4.81766 0.6171,-9.9115 -1.09991,-14.27189 l -0.0842,-0.21327 -0.0974,-0.20523 c -1.90853,-4.03979 -4.74627,-7.24968 -8.13821,-8.97237 l -0.30879,-0.15558 -0.32297,-0.10355 c -4.02797,-1.27866 -8.31507,-0.53956 -12.2357,1.75815 l -0.2946,0.17213 -162.146213,130.39864 0.02369,-0.0237 C 45.227483,706.51155 39.927,715.81918 39.927,726.50052 c 0,10.10255 4.995474,18.97987 12.974326,25.73397 l 0.03309,0.0284 161.408534,132.21501 0.24022,0.15233 c 3.14416,1.99595 6.55644,2.96677 9.85192,2.57145 z"
       style="fill:#1d365d;fill-opacity:1;stroke:#ffffff;stroke-opacity:1;stroke-width:16.62;stroke-miterlimit:4;stroke-dasharray:none" />
    <path
       sodipodi:nodetypes="ccccscccccccccccccccccscccccc"
       inkscape:connector-curvature="0"
       id="path5086-3-4-9-3-46-5"
       d="m 256.46846,887.20549 c -1.09802,-0.13193 -2.18374,-0.41617 -3.24252,-0.86348 l -0.0629,-0.0284 -0.0615,-0.0284 c -3.72532,-1.72031 -6.82173,-5.24609 -8.74397,-9.72141 -1.91846,-4.4653 -2.53462,-9.71476 -1.51936,-14.5594 0.83321,-5.54631 3.81612,-10.35121 7.81524,-13.08538 l -0.32297,0.23972 150.04296,-122.19712 -150.04294,-122.19754 0.078,0.0615 c -3.97406,-3.10538 -6.92622,-7.86631 -7.95143,-13.45477 -0.9363,-4.81766 -0.6171,-9.9115 1.09991,-14.27189 l 0.0842,-0.21327 0.0974,-0.20523 c 1.90853,-4.03979 4.74627,-7.24968 8.13821,-8.97237 l 0.30879,-0.15558 0.32297,-0.10355 c 4.02797,-1.27866 8.31507,-0.53956 12.2357,1.75815 l 0.2946,0.17213 162.14622,130.39864 -0.0237,-0.0237 c 8.51461,6.75741 13.81509,16.06504 13.81509,26.74638 0,10.10255 -4.99547,18.97987 -12.97432,25.73397 l -0.0331,0.0284 -161.40854,132.21501 -0.24022,0.15233 c -3.14416,1.99595 -6.55644,2.96677 -9.85192,2.57145 z"
       style="fill:#1d365d;fill-opacity:1;stroke:#ffffff;stroke-width:16.62000084;stroke-miterlimit:4;stroke-dasharray:none;stroke-opacity:1" />
  </g>
</svg>
